<?xml version="1.0" encoding="utf-8"?>
<!-- Generator: Adobe Illustrator 15.0.2, SVG Export Plug-In . SVG Version: 6.00 Build 0)  -->
<!DOCTYPE svg PUBLIC "-//W3C//DTD SVG 1.1//EN" "http://www.w3.org/Graphics/SVG/1.1/DTD/svg11.dtd">
<svg version="1.1" id="Layer_1" xmlns="http://www.w3.org/2000/svg" xmlns:xlink="http://www.w3.org/1999/xlink" x="0px" y="0px"
	 width="894px" height="393.07px" viewBox="0 0 894 393.07" enable-background="new 0 0 894 393.07" xml:space="preserve">
<g>
	<g>
		<path fill="#EC008C" d="M349.42,386.53c0.04,0.48,0.12,0.91,0.24,1.25c0.58-0.36,1.1-0.93,1.6-1.76c2.9-4.93,3.19-8.15,4.97-8.3
			c0.13-0.01,0.18,0.07,0.19,0.2c0.02,0.17-0.09,0.44-0.27,0.9c-3.99,10.01-4.72,10.68-6.59,10.84c-1.95,0.17-2.79-1.9-3.01-4.46
			c-0.37-4.34,0.88-9.56,1.91-13.85c-0.65,0.01-1.26,0.07-1.91,0.12c-1.61,2.06-3.88,4.14-5.58,4.28c-1.61,0.14-3.27-0.94-3.36-1.94
			c-0.17-2,6.09-3.41,6.7-3.51c0.56-1.05,1.03-2.23,1.22-3.56c-3.94,0.51-8.67,4.42-11.14,7.69c-0.12,0.14-0.11,0.23-0.1,0.4
			c0.11,1.3,3.7,2.87,5.63,3.89c1.6,0.87,5.09,2.71,5.27,4.84c0.02,0.22-0.01,0.39-0.04,0.57c-0.67,4.43-5.78,8.5-10.43,8.9
			c-1.61,0.14-5.87-0.59-6.08-3.11c-0.26-3.04,6.15-4.2,9.73-4.73c0.39-0.03,0.58,0.17,0.61,0.43c0.15,1.74-3.94,1.96-5.85,2.6
			c-0.3,0.07-1.79,0.55-2.11,0.84c0.41,0.23,1.03,0.26,1.51,0.22c3.21-0.28,7.13-1.45,8.36-4.96c0-0.04,0.03-0.09,0.03-0.18
			c-0.1-1.22-4.02-2.45-6.07-3.41c-2.27-1.03-5.57-2.71-5.78-5.19c-0.24-2.82,2.37-5.54,4.74-7.36c3.98-3.01,7.27-4.48,12.13-4.9
			c1.61-0.14,3.37,1.02,3.5,2.59c0.08,0.87-0.67,2.37-1.64,3.86c0.39-0.03,0.78-0.07,1.17-0.14c1.03-3.24,1.82-4.22,2.08-4.25
			c0.83-0.07,1.94,1.14,2.06,2.53c0.04,0.43-0.04,1.05-0.18,1.46c2.18-0.01,2.94-0.39,3.09,1.35c0.05,0.57,0,1.05-0.13,1.06
			c-0.08,0.01-1.69-0.34-3.71-0.42c-1.26,4.22-1.69,6.27-2.19,9.11C349.61,382.67,349.28,384.93,349.42,386.53z M344.31,363.88
			c-6.2,1.63-10.52,4.23-13.28,7.75C334.17,368.43,338.49,365.83,344.31,363.88z M333.46,392.68c5.44-0.86,9.07-3.32,10.86-7.41
			C342.25,389.16,338.66,391.62,333.46,392.68z M339.17,374.25c0.01,0.17,0.16,0.29,0.46,0.27c0.61-0.05,1.86-0.73,3.41-2.53
			C340.22,372.63,339.13,373.78,339.17,374.25z M349.14,372.17l-0.17,0.01c-0.86,3.22-1.42,6.29-1.48,8.74
			c0.11-1.28,0.34-2.61,0.61-4.03L349.14,372.17z"/>
		<path fill="#EC008C" d="M365.86,377.42c0.09-0.01,0.14,0.08,0.15,0.16c0.02,0.26-0.12,0.71-0.37,1.3l-0.44,0.96
			c-1.53,3.54-3.36,7.68-6.92,7.98c-2.82,0.24-5.03-1.58-5.21-3.62c-0.36-4.21,3.17-11.47,6.9-11.79c1.61-0.14,3.02,1.05,3.14,2.49
			c0.25,2.91-3.19,7.1-5.8,7.32c-0.26,0.02-0.48,0-0.71-0.07c-0.05,0.4-0.1,0.84-0.07,1.23c0.1,1.13,0.66,2.09,2.22,1.95
			c2.82-0.24,4.7-5.79,5.79-6.93C365.23,377.74,365.64,377.44,365.86,377.42z M357.1,374.72c-1.96,2.09-2.77,4.35-2.71,5.09
			c0.09-0.01,0.19-0.89,0.46-1.22C355.25,377.68,357.12,374.98,357.1,374.72z M358.33,374.79c-0.09,0.01-2.31,2.65-2.23,3.56
			C356.28,378.38,358.33,374.83,358.33,374.79z M360.12,375.25c-1.17,0.1-3.19,5.13-3.3,5.84c0.09,0.04,0.22,0.03,0.31,0.02
			c2.04-0.18,3.49-4.19,3.38-5.41c-0.02-0.17-0.07-0.26-0.12-0.34C360.29,375.28,360.2,375.24,360.12,375.25z M360.81,376.76
			c-0.42,1.74-1.22,3.12-2.39,4.18C359.79,380.13,360.55,378.71,360.81,376.76z"/>
		<path fill="#EC008C" d="M372.59,369.8c1.04-0.09,2.55,1.18,2.62,2c-0.49,2.97-4.09,14.91-7.65,15.22
			c-2.52,0.22-3.45-2.46-3.68-5.19c-0.24-2.82,0.14-6.05,0.38-7.77c0.12-1.15,0.07-2.28,0.98-2.36c0.22-0.02,0.57-0.01,0.58,0.17
			c0.04,0,0.04-0.05,0.17-0.06c0.18,0.11,0.64,0.3,0.59,0.3c0.01,0.13,0.36,0.1,0.36,0.14c-0.37,0.82-0.59,2.85-0.55,3.28
			c0.04,0,0.53-2.45,0.77-3.26c0.52,0.44,1.14,0.51,1.24,1.69c0-0.04-1.41,7.42-1.2,9.85c0.04,0.48,0.15,0.78,0.33,0.76
			c1.39-0.12,4.19-10.16,4.47-14.12C371.99,370.03,372.24,369.83,372.59,369.8z M372.81,372.93l-0.01-0.17l-0.18,0.98
			c-0.15,0.8-1.77,5.79-1.63,5.87C371.2,379.58,372.97,374.75,372.81,372.93z M373.57,373.08c-0.05-0.04-0.71,3.47-1.95,6.77
			c-0.07,0.22-0.24,0.72-0.25,0.63c-0.02-0.26,1.66-3.07,2.14-6.66C373.56,373.43,373.58,373.13,373.57,373.08z"/>
		<path fill="#EC008C" d="M387.3,375.57c0.08-0.01,0.14,0.08,0.14,0.16c0.02,0.26-0.12,0.71-0.37,1.3l-0.44,0.96
			c-1.53,3.54-3.36,7.68-6.92,7.99c-2.82,0.24-5.04-1.58-5.21-3.62c-0.36-4.21,3.17-11.47,6.9-11.79c1.61-0.14,3.02,1.05,3.14,2.49
			c0.25,2.91-3.19,7.1-5.79,7.32c-0.26,0.02-0.48,0-0.71-0.07c-0.05,0.4-0.1,0.84-0.07,1.23c0.1,1.13,0.66,2.09,2.22,1.95
			c2.82-0.24,4.71-5.79,5.79-6.93C386.67,375.89,387.08,375.59,387.3,375.57z M378.54,372.87c-1.96,2.09-2.77,4.35-2.71,5.09
			c0.09-0.01,0.19-0.89,0.46-1.22C376.69,375.83,378.56,373.13,378.54,372.87z M379.77,372.94c-0.09,0.01-2.31,2.65-2.23,3.56
			C377.71,376.53,379.77,372.98,379.77,372.94z M381.56,373.4c-1.17,0.1-3.19,5.13-3.3,5.84c0.09,0.04,0.22,0.02,0.31,0.02
			c2.04-0.18,3.49-4.19,3.38-5.41c-0.02-0.17-0.07-0.26-0.12-0.34C381.73,373.43,381.64,373.39,381.56,373.4z M382.25,374.91
			c-0.42,1.74-1.22,3.12-2.39,4.19C381.23,378.28,381.98,376.86,382.25,374.91z"/>
		<path fill="#EC008C" d="M408.81,364.4c0.72,8.38-3.41,23.38-9.79,23.93c-2.78,0.24-5.02-2.45-5.26-5.27
			c-0.22-2.52,1.42-7.91,4.76-8.19c1.26-0.11,2.48,0.88,2.8,2.03c0,0.04,0.01,0.09,0.06,0.17c0,0.04-0.12,0.67-0.19,0.8
			c-0.04,0-0.12,0.1-0.12,0.1c-0.35,0.03-0.64-0.34-1.09-0.48c-1.26,0.11-3.26,3.74-3.03,6.47c0.1,1.13,0.77,1.81,1.72,1.73
			c2.47-0.21,4.18-7.84,4.63-9.76c0.69-3.12,1.16-6.26,1.59-9.45c0.1-0.88,0.33-1.78,0.13-3.99c-0.1-1.22-0.41-2.24-1.23-2.17
			c-3.38,0.29-7.65,10.67-7.5,12.41c0.03,0.35,0.3,0.5,0.31,0.59c0.02,0.21-0.23,0.32-0.36,0.38c0,0,0,0-0.3,0.03
			c-1.39,0.12-3.62-1.44-3.73-2.65c-0.22-2.56,2.72-5.92,4.95-8.04c1.57-1.54,4.55-3.98,7.2-4.21c2.47-0.21,3.59,1.53,4.09,3.32
			C408.62,362.8,408.74,363.58,408.81,364.4z M392.99,371.1c-0.08-0.91,0.17-2.07,0.79-3.48c-0.84,1.38-1.23,2.47-1.16,3.29
			c0.04,0.52,0.25,0.94,0.67,1.25C393.1,371.88,393.02,371.49,392.99,371.1z M404.86,370.91l0.03-0.7
			c-0.42,4.24-1.47,8.26-2.84,12.18c1.08-2.19,1.87-4.71,2.36-7.64c0.29-1.16,0.59-2.76,0.48-4.07
			C404.9,370.77,404.86,370.82,404.86,370.91z M405.1,374.65c0.04,0.43-2,6.69-2.13,6.7c0.04-0.05,0.1,0.17,0.1,0.12
			c0.04,0,0.03-0.22,0.11-0.23c0.17-0.02,0.61-1.01,1.82-5.32C405.09,375.09,405.1,374.65,405.1,374.65z"/>
		<path fill="#EC008C" d="M423.81,372.16c0.13-0.01,0.22,0.02,0.23,0.16c0.02,0.17-0.09,0.49-0.27,0.94c-1.43,3.14-2.78,5.31-5.17,6
			c-1.23,1.94-2.91,3.31-4.86,3.48c-3.38,0.29-5.06-2.41-5.29-5.05c-0.08-0.87,0.1-4.95,1.05-5.03c0.39-0.04,1.02,0.13,1.53,0.48
			c-0.06-0.21-0.08-0.43-0.1-0.6c-0.24-2.82,1.8-5.45,4.37-5.67c3.26-0.28,4.91,2.64,5.13,5.2c0.14,1.61-0.15,3.38-0.75,5
			c1.14-0.93,1.5-2.4,2.81-3.87C423.03,372.62,423.55,372.18,423.81,372.16z M409.71,373.86c-0.22,0.02-0.68,1.81-0.54,3.46
			c0.08,0.95,0.3,1.9,0.7,2.48c-0.22-0.51-0.37-1.28-0.45-2.1c-0.12-1.35-0.02-2.75,0.23-3.39
			C409.68,374.03,409.71,373.86,409.71,373.86z M413.68,380.38c0.65-0.06,1.23-0.41,1.8-0.94c-1.35-0.45-2.62-1.48-3.53-2.93
			c-0.12,0.62-0.16,1.15-0.12,1.67c0.09,1.09,0.6,1.92,1.46,2.19C413.42,380.4,413.55,380.39,413.68,380.38z M417.54,371.39
			c-0.13-1.47-0.69-2.43-1.95-2.32c-1.73,0.15-2.63,2.41-2.44,4.63c0.16,1.91,1.16,3.79,3.19,4.1
			C416.98,376.55,417.72,373.51,417.54,371.39z M419.17,370.5c0.05,0.08,0.15,0.25,0.15,0.21c-0.07-0.82-1.18-2.57-2.42-2.68
			C417.8,368.3,419.06,369.73,419.17,370.5z"/>
		<path fill="#EC008C" d="M432.69,370.08c0.36,4.17-2.22,9.81-3.91,10.96c-0.46,0.3-0.92,0.43-1.36,0.47
			c-1.04,0.09-2-0.39-2.76-1.12c0.06,0.65,0.33,1.33,0.36,1.67c0.03,0.35-0.13,0.54-0.34,0.55c-0.26,0.02-0.58-0.17-0.88-0.58
			c-1.16-0.29-1.72-1.69-1.88-3.6c-0.61-7.07,3.63-19.77,4.8-19.87c0.78-0.07,1.84,1.59,1.94,2.72c0.02,0.22-0.01,0.39-0.04,0.53
			l-2.29,7.41c1.03-1.31,2.28-2.47,3.54-2.58c1.43-0.12,2.56,1.79,2.71,2.56C432.64,369.52,432.66,369.78,432.69,370.08z
			 M425.07,362.91c-1.29,3.83-2.06,7.08-2.36,9.65C423.41,369.96,424.18,366.71,425.07,362.91z M429.75,368.94
			c-0.02-0.21-0.07-0.3-0.16-0.33c-0.31-0.06-5.23,5.22-4.95,8.56c0.08,0.87,0.53,1.62,1.49,2.06
			C427.17,379.17,429.9,370.67,429.75,368.94z M425.02,372.97c0.45-0.87,1.46-2.36,2.62-3.64
			C426.45,370.27,424.97,372.37,425.02,372.97z M432.09,370.22c-0.05-0.57-0.19-1.12-0.45-1.62c0.07,0.34,0.11,0.74,0.14,1.08
			c0.12,1.35,0.02,2.71-0.38,4.19C431.93,372.51,432.18,371.31,432.09,370.22z"/>
		<path fill="#EC008C" d="M440.94,366.35c0.05,0.13,0.06,0.26,0.08,0.39c0.13,1.52-2.3,3.21-3.18,4.17
			c-0.05,0.44-0.06,0.88-0.02,1.31c0.21,2.43,1.51,5.34,2.29,7.32c0.06,0.17,0.07,0.34,0.08,0.48c0.09,1-1.01,1.44-2.27,1.55
			c-1.13,0.1-2.37-0.1-2.96-0.4c-1.23-0.59-2.79-2.38-2.87-3.38c-0.06-0.69,0.13-1.5,0.73-1.68l0.13,0.03
			c0.97,0.62,2.1,2.05,3.29,2.6c-0.93-1.67-1.83-4.44-2.02-6.69c-0.07-0.83-0.05-1.61,0.11-2.24c0.7-2.51,4.54-5.64,5.8-5.75
			c0.04,0,0.13,0.03,0.22,0.07c0.09-0.01,0.18,0.03,0.19,0.11c0,0.04,0.01,0.09-0.03,0.18l0.21-0.15l0.18,0.03
			c0.14,0.08,0.44,0.53,0.5,0.66C441.42,365.39,441.24,365.85,440.94,366.35z M438.74,365.28c-1.78,1.16-2.97,2.57-3.66,4.16
			C435.97,368.09,437.16,366.72,438.74,365.28z M437.91,366.75c-0.95,0.65-1.63,1.41-1.99,2.27
			C436.42,368.27,437.06,367.52,437.91,366.75z M437.28,372.62c0.02,0.26,0,0.57,0.03,0.83c0.16,1.87,0.74,3.52,1.74,4.97
			C438.19,376.65,437.59,374.73,437.28,372.62z"/>
	</g>
	<g>
		<g>
			<path fill="#EC008C" d="M136.57,27.67c4.44,33.58-15.63,117.39-74.06,137.17c-1.66,0.72-3.39,0.95-4.88,1.15
				c-13.09,1.73-20.61-9.58-21.92-19.46c-2.74-20.74,36.04-27.63,43.91-28.92l1.23-0.16c2.47-0.33,3.9,0.99,4.13,2.72
				c0.2,1.48-0.56,3.34-2.51,3.85c-26.46,7.02-37.95,24.62-37.69,26.59c0.1,0.74,0.88,0.89,2.6,0.66c2.47-0.33,7.06-1.69,13.16-5.01
				c39.24-20.52,55.73-91.54,51.94-120.18c-1.31-9.88-5.07-13.65-10.01-13c-17.04,2.25-45.62,61.56-41.04,101.91
				c0.31,0.46,0.38,0.95,0.44,1.45c0.2,1.48-0.07,3.28-2.54,3.6c-0.74,0.1-1.76-0.02-2.5,0.08c-0.99,0.13-2.6-0.66-2.6-0.66
				c-0.25,0.03-0.5,0.07-0.43,0.56c-5.1-0.58-4.67-1.14-5.41-1.04c-0.25,0.03-0.18,0.53-0.92,0.62c-8.65,1.14-10.23-5.18-10.85-9.87
				c-2.97-22.47,11.04-72.31,17.21-90.21C35.6,29.72,18.22,71.21,20.77,90.48c0.85,6.42,4.98,9.14,5.21,10.87
				c-0.68,0.59-0.83,1.37-1.32,1.43c-0.25,0.03-0.77-0.15-1.02-0.12c-0.5,0.07-0.18,0.53-0.92,0.63c-0.99,0.13-2,0.01-2.81-0.38
				c-0.25,0.03-0.46,0.31-0.71,0.34C9.07,104.58,1.16,96.08,0.21,88.92c-3.2-24.2,30.54-74.89,55.24-78.15
				c2.96-0.39,5.13,0.83,8.13,0.68c0,0,3.8,0.25,3.96,1.49c0.13,0.99-0.43,4.33-1.49,7.73c-0.79,1.61-4.44,13.9-6.22,15.65
				c-1.28,1.68,10.53-23,9.29-22.83c0.03,0.25,1.89,1.01,2.71,3.41c1.04,7.9-3.61,18.31-5.95,27.17
				C78.04,20.09,93.86,2.92,109.56,0.09c0.49-0.07,1.24-0.16,2.01-0.01c8.38,0.65,20.41,11.87,23.28,20.28
				C135.64,22.52,136.21,24.96,136.57,27.67z M4.39,86.36c-0.78-5.92,0.28-13.1,3.18-21.52C3.5,73.92,1.7,81.19,2.42,86.62
				c0.69,5.19,3.18,8.87,7.78,11.28C7.05,95.05,5.01,91.05,4.39,86.36z M46.2,66.26c1.16-6.44,4.93-19.75,4.63-21.97
				c-0.25,0.03-0.36,1.05-1.27,3.69c-5.03,26.54-9.69,44.49-9.13,48.69c0.03,0.25,0.62,0.92,1.11,0.86c0.5-0.07,1.61-8.75,2.34-18.4
				C44.45,75.79,45.13,71.42,46.2,66.26z M55.08,63.07c-4.43,19.68-7.41,35.15-7.35,35.64c0.03,0.25,0.87,0.89,1.37,0.82
				c0.99-0.13,0.45-2.32,1.33-8.97c0.56-3.34,6.71-25.26,5.89-31.43C56.25,58.65,55.64,59.73,55.08,63.07z M84.77,19.7
				c-0.25,0.03-0.5,0.07-0.92,0.62c-0.22,0.28-6.64,4.9-9.3,13.29c-2.07,3.29-8.73,19.5-9.15,20.05c0,0,0.22-0.28,0.39-0.81
				C70.15,40.23,79.2,26.97,84.77,19.7z M86.97,21.17c1.73-0.23-17.94,18.2-16.7,27.58c-0.5,0.07,13.73-23.42,16.3-26.78
				C86.79,21.69,87,21.41,86.97,21.17z M113.55,91.02c-3.02,9.45-20.05,44.1-27.73,44.87c13.85-7.36,22.53-29.11,27.65-43.61
				C113.68,92,113.61,91.51,113.55,91.02z M89.68,127.08c0.25-0.03,1.13-0.9,2.42-2.58c9.59-11.07,16.71-31.35,20.09-41.85
				c-1.53,1.71-1.17,0.66-2.11,3.04c-0.54,1.58-0.76,1.86-0.76,1.86c-7.74,19.37-11.82,28.45-18.46,37.12
				c-0.64,0.84-0.83,1.36-0.79,1.61C89.86,126.56,89.65,126.84,89.68,127.08z"/>
			<path fill="#EC008C" d="M197.63,82.91c0.5-0.07,0.81,0.39,0.87,0.89c0.2,1.48-0.47,4.08-1.77,7.52l-2.27,5.58
				c-7.83,20.63-17.2,44.73-37.45,47.41c-16.05,2.12-29.16-7.7-30.69-19.31c-3.17-23.95,15.09-66.31,36.33-69.12
				c9.13-1.21,17.52,5.22,18.6,13.37c2.19,16.54-16.39,41.36-31.21,43.32c-1.48,0.2-2.75,0.11-4.04-0.22
				c-0.2,2.29-0.37,4.82-0.07,7.05c0.85,6.42,4.32,11.74,13.21,10.56c16.05-2.12,25.37-34.26,31.25-41.07
				C194.12,84.88,196.4,83.07,197.63,82.91z M146.9,69.77c-10.66,12.46-14.71,25.56-14.15,29.76c0.49-0.07,0.83-5.13,2.33-7.09
				C137.14,87.14,147.1,71.25,146.9,69.77z M153.95,69.84c-0.49,0.07-12.49,15.72-11.81,20.9
				C143.16,90.87,153.98,70.09,153.95,69.84z M164.28,71.99c-6.67,0.88-16.87,30.12-17.33,34.2c0.53,0.18,1.27,0.08,1.76,0.02
				c11.6-1.54,18.82-24.85,17.91-31.76c-0.13-0.99-0.44-1.45-0.76-1.91C165.3,72.11,164.78,71.93,164.28,71.99z M168.67,80.46
				c-1.93,10.05-6.14,18.15-12.58,24.53C163.71,99.96,167.64,91.65,168.67,80.46z"/>
			<path fill="#EC008C" d="M224.57,52.97c0.35,0.71,0.44,1.45,0.54,2.19c1.14,8.64-12.31,18.97-17.09,24.62
				c-0.17,2.53-0.09,5.04,0.24,7.51c1.83,13.83,10.01,30.08,15,41.23c0.38,0.96,0.51,1.94,0.61,2.68c0.75,5.68-5.41,8.5-12.57,9.45
				c-6.42,0.85-13.56,0.03-17.03-1.52c-7.19-3.07-16.53-12.89-17.28-18.57c-0.52-3.95,0.37-8.59,3.73-9.79l0.77,0.15
				c5.71,3.26,12.53,11.15,19.44,14.01c-5.75-9.29-11.58-24.85-13.28-37.69c-0.62-4.69-0.71-9.2,0.06-12.82
				c3.36-14.51,24.48-33.39,31.64-34.33c0.25-0.03,0.78,0.15,1.3,0.33c0.49-0.07,1.02,0.11,1.09,0.61c0.03,0.25,0.06,0.49-0.12,1.02
				l1.13-0.9l1.03,0.11c0.8,0.4,2.64,2.92,2.99,3.62C227.1,47.35,226.19,49.99,224.57,52.97z M211.77,47.37
				c-9.87,7.08-16.3,15.47-19.84,24.73C196.66,64.2,203.12,56.05,211.77,47.37z M207.39,55.99c-5.25,3.96-8.93,8.46-10.78,13.48
				C199.3,65.1,202.72,60.63,207.39,55.99z M205.31,89.68c0.2,1.48,0.18,3.24,0.37,4.73c1.4,10.61,5.15,19.92,11.23,27.91
				C211.59,112.47,207.65,101.68,205.31,89.68z"/>
			<path fill="#EC008C" d="M277.1,72.15c0.74-0.1,1.3,0.33,1.4,1.07c0.55,4.2-18.31,57.19-33.37,59.18
				c-11.11,1.47-16.87-7.82-18.24-18.19C224.7,97.67,230.7,72.76,238,48.17c0.33-1.3,1.96-2.27,3.94-2.53
				c5.68-0.75,14.94,2.8,15.86,9.71c0.2,1.48,0.14,2.99-0.61,4.85c-8.83,22.52-14.29,45.85-12.36,60.42
				c11.58-9.32,17.53-32.72,25.06-42.25C272.73,75.24,275.37,72.37,277.1,72.15z M249.58,73.02c-3.71,0.49-9.58,30.16-8.65,39.08
				c0.23,1.73,0.33,2.47,0.57,2.44c0.25-0.03,0.3-1.54,0.32-3.31C241.58,103.73,249.02,72.59,249.58,73.02z M257.15,39.11
				c-3.45,0.46-10.92-2.83-11.45-6.78c-0.56-4.2,3.78-24.62,8.47-25.24c4.45-0.59,16.19,4.64,16.65,8.1
				c0.03,0.25,0.07,0.5-0.15,0.77c-4.4,6.61-6.71,11.94-11.64,22.14C258.6,38.67,258.14,38.98,257.15,39.11z M248.95,28.38
				c1.48-0.2,1.73-4,1.77-3.75c0.99-0.13,4.27-11.37,4.11-12.6c-1.23,0.16-5.96,13.85-5.79,15.09
				C249.07,27.36,248.88,27.89,248.95,28.38z"/>
			<path fill="#EC008C" d="M325.49,69.51c0.13,0.99,0.23,1.73,0.08,2.5c-5.03,39.86-6.47,101.1-44.26,106.1
				c-11.85,1.57-20.33-9.37-21.21-16.04c-0.33-2.47,0.75-3.87,2.23-4.06c2.22-0.29,4.47,3.43,6.7,3.13
				c16.79-2.22,26.19-22.31,32.82-46.29c-5.24,5.97-11.07,11.26-17,12.04c-14.32,1.89-17.47-20.05-17.44-19.8
				c-3.92-29.63,12.1-66.17,29.63-68.49c8.65-1.14,20.98,4.76,22.84,18.84c0.16,1.23,0.11,2.75,0.28,3.98
				C322.6,62.86,325.03,66.06,325.49,69.51z M284.46,51.83c-7.86,10.84-11.48,23.38-10.63,29.8l0.16,1.23
				c0.21-0.28,0.55-5.35,1.27-7.45C276.83,70.17,282.98,52.03,284.46,51.83z M305.14,78.99c-0.43-3.21,2.01-17.1,1.19-23.27
				c-0.39-2.96-0.95-3.39-1.94-3.26c-7.65,1.01-21.19,52.55-19.78,63.17c0.16,1.23,0.51,1.94,1.01,1.88
				c1.73-0.23,15.81-17.17,23.32-34.49C307.91,82.89,305.4,80.97,305.14,78.99z M310.09,137.38c-0.29,1.55-0.64,4.61-1.47,5.97
				c-2.21,6.07-12.23,21.47-12.07,22.7c0.25-0.03,0.67-0.59,1.96-2.27c7.6-9.04,11.25-17.57,12.24-25.24
				C310.69,138.05,310.31,137.1,310.09,137.38z"/>
			<path fill="#EC008C" d="M418.33,53.47c0.74-0.1,1.05,0.37,1.15,1.1c0.39,2.96-16.8,57.25-36.06,59.79
				c-6.42,0.85-13.9-4.44-15.44-16.05c-2.48-18.77,6.98-47.91,8.3-53.11c-3.74,4.01-24.33,40.15-31.45,69.98
				c-0.05,1.52-1.15,2.67-2.88,2.9c-3.95,0.52-10.22-3.17-12.01-16.75c-1.67-12.59,0.53-33.99,12.55-68.49
				c0.55-1.58,1.68-2.49,3.41-2.71c3.95-0.52,10.15,2.68,13.85,5.96l-1.04,1.64c-1.52,3.72-9.95,21.67-9.07,28.33
				c0.1,0.74,0.13,0.99,0.44,1.45c0.26-7.57,9.2-31.12,9.94-31.22c1.43,1.32,2.4,2.95,2.6,4.43c0.46,3.46-5.58,14.81-7.58,20.6
				c8.99-17.52,19.51-32.98,29.14-34.26c6.91-0.91,14.08,3.92,14.93,10.34c0.88,6.67-14.93,46.7-13.1,64.29
				c11.51-9.82,17.56-32.47,25.1-42.01C413.68,56.34,416.85,53.66,418.33,53.47z M374.35,98.98c-0.92-6.91,1.41-27.32,1.41-27.32
				c-0.25,0.03-3.85,18.35-3,24.77c0.1,0.74,1.6,8.33,3.08,8.13C375.81,104.31,374.75,101.94,374.35,98.98z M378.67,80.32
				c-0.49,0.07-1.5,9.5-0.88,14.19c0.29,2.22,1.41,6.85,1.41,6.85c0.74-0.1-0.92-16.46-0.33-19.55
				C378.83,81.55,378.67,80.32,378.67,80.32z"/>
		</g>
		<g>
			<path fill="#EC008C" d="M489.18,89.45c0.54-0.07,0.95,0.24,1.02,0.78c0.41,3.07-13.38,41.8-24.39,43.25
				c-8.12,1.07-12.32-5.71-13.33-13.29c-1.6-12.09,2.79-30.3,8.12-48.26c0.24-0.95,1.43-1.66,2.88-1.85
				c4.15-0.55,10.92,2.04,11.59,7.1c0.14,1.08,0.1,2.19-0.45,3.55c-6.45,16.46-10.44,33.51-9.03,44.16
				c8.46-6.81,12.81-23.91,18.32-30.88C485.98,91.71,487.91,89.61,489.18,89.45z M469.06,90.09c-2.71,0.36-7,22.04-6.32,28.56
				c0.17,1.26,0.24,1.8,0.42,1.78c0.18-0.02,0.22-1.13,0.23-2.42C463.22,112.53,468.66,89.77,469.06,90.09z M474.6,65.3
				c-2.53,0.33-7.99-2.07-8.37-4.95c-0.41-3.07,2.76-17.99,6.19-18.45c3.25-0.43,11.83,3.39,12.17,5.92
				c0.02,0.18,0.05,0.36-0.11,0.57c-3.21,4.83-4.9,8.73-8.51,16.18C475.66,64.98,475.32,65.21,474.6,65.3z M468.6,57.46
				c1.08-0.14,1.27-2.92,1.29-2.74c0.72-0.1,3.12-8.31,3-9.21c-0.9,0.12-4.35,10.12-4.23,11.03
				C468.69,56.72,468.56,57.1,468.6,57.46z"/>
			<path fill="#EC008C" d="M509.07,67.72c0.25,0.52,0.32,1.06,0.4,1.6c0.84,6.32-9,13.86-12.49,17.99
				c-0.12,1.85-0.06,3.68,0.17,5.49c1.34,10.11,7.32,21.98,10.96,30.13c0.28,0.7,0.37,1.42,0.44,1.96c0.55,4.15-3.95,6.22-9.19,6.91
				c-4.69,0.62-9.91,0.03-12.45-1.11c-5.26-2.24-12.08-9.42-12.63-13.57c-0.38-2.89,0.27-6.28,2.73-7.15l0.57,0.11
				c4.17,2.38,9.16,8.15,14.21,10.24c-4.2-6.79-8.46-18.16-9.7-27.54c-0.45-3.43-0.52-6.72,0.04-9.37
				c2.45-10.61,17.89-24.4,23.12-25.09c0.18-0.02,0.57,0.11,0.95,0.24c0.36-0.05,0.75,0.08,0.79,0.45c0.02,0.18,0.05,0.36-0.08,0.75
				l0.83-0.66l0.75,0.08c0.59,0.29,1.93,2.13,2.19,2.65C510.91,63.62,510.25,65.54,509.07,67.72z M499.71,63.63
				c-7.21,5.17-11.91,11.3-14.5,18.07C488.67,75.93,493.39,69.98,499.71,63.63z M496.51,69.93c-3.84,2.9-6.53,6.19-7.88,9.85
				C490.59,76.59,493.1,73.32,496.51,69.93z M494.99,94.55c0.14,1.08,0.13,2.37,0.27,3.45c1.03,7.76,3.76,14.56,8.21,20.4
				C499.58,111.21,496.7,103.32,494.99,94.55z"/>
			<path fill="#EC008C" d="M607.36,73.81c0.54-0.07,0.95,0.24,1.02,0.78c0.17,1.26-10.5,34.44-17.43,41.78
				c-1.46,1.48-3.21,2.08-4.66,2.27c-1.08,0.14-2.19,0.11-3.32-0.11l-0.77-0.27c-5.06-0.8-8.17-4.79-9.78-10.09
				c-3.66,5.63-9.19,12.42-15.59,14c-9.2,1.22-13.93-9.54-14.65-14.96c-2.74-20.75,8.16-49.37,22.59-51.28
				c6.32-0.83,14.51,2.85,17.07,12.43c3.42,0.83,8.76,3.8,9.27,7.59c0.07,0.54-0.01,1.29-0.12,1.85c-3.45,10-5.74,21.87-4.54,30.89
				c7.06-7.73,10.44-23.78,15.63-30.34C604.15,75.89,606.28,73.96,607.36,73.81z M557.96,64.01c-3.49,4.13-9.08,11.85-8.67,19.14
				c0.16-0.2,0.99-3.62,1.41-4.59C552.08,75.07,557.06,64.13,557.96,64.01z M571.52,69.37c-0.26-1.99-0.51-2.5-1.42-2.38
				c-5.59,0.74-15.07,37.43-14.13,44.47c0.09,0.72,0.35,1.24,0.71,1.19c2.16-0.29,16.76-20.39,16.36-23.46
				c-0.77-0.26-2.2-1.36-2.37-2.62c-0.05-0.36,0.08-0.75,0.22-1.13C571.9,81.99,572.07,73.52,571.52,69.37z M561,66.18
				c-0.36,0.05-3.88,4-5.37,6.59c0.05,0.36-3.18,6.48-2.64,6.41c-0.72,0.1,3.69-5.44,7.39-12.18C560.84,66.38,561,66.18,561,66.18z
				 M583.3,77.92c0.13-0.39,0.11-0.57,0.11-0.57c-0.18,0.02-1.01,0.68-1.13,2.54c0,0-2.7,24.04-2.42,24.74
				c0.32-3.17,1.76-10.33,2.17-15.53C582.85,84.22,583.49,79.36,583.3,77.92z"/>
			<path fill="#EC008C" d="M634.76,70.01c0.54-0.07,0.95,0.24,1.02,0.78c0.1,0.72-0.28,2.06-0.94,3.98
				c-4.68,11.82-10.95,37.98-22.68,39.54c-8.3,1.1-12.32-5.72-13.71-16.18c-3.7-27.97,11.87-82.36,15.29-84.28
				c0.34-0.23,0.7-0.28,1.24-0.35c3.43-0.45,7.93,4.46,8.7,10.23c0.24,1.8,0.27,3.45-0.23,5.17c-4.6,16.58-15.37,54.54-12.89,73.31
				c0.19,1.44,0.54,2.68,0.89,3.92c8.92-6.14,12.4-24.23,18.06-31.4C631.54,72.08,633.67,70.15,634.76,70.01z M608.88,35.42
				c-5.1,18.3-7.92,35.93-7.93,49.71C601.9,71.42,604.71,55.25,608.88,35.42z"/>
			<path fill="#EC008C" d="M655.03,48.42c0.25,0.52,0.32,1.06,0.39,1.6c0.84,6.32-9,13.86-12.49,17.99
				c-0.12,1.85-0.06,3.68,0.17,5.49c1.34,10.11,7.31,21.98,10.96,30.13c0.28,0.7,0.37,1.42,0.44,1.96c0.55,4.15-3.95,6.22-9.18,6.91
				c-4.69,0.62-9.91,0.03-12.45-1.11c-5.26-2.24-12.08-9.42-12.63-13.57c-0.38-2.89,0.27-6.28,2.73-7.15l0.56,0.11
				c4.17,2.38,9.16,8.15,14.21,10.24c-4.2-6.79-8.46-18.16-9.7-27.54c-0.45-3.43-0.52-6.72,0.05-9.37
				c2.45-10.61,17.89-24.4,23.12-25.09c0.18-0.02,0.57,0.11,0.95,0.24c0.36-0.05,0.74,0.08,0.79,0.45c0.02,0.18,0.05,0.36-0.09,0.75
				l0.83-0.66l0.75,0.08c0.59,0.29,1.93,2.13,2.19,2.65C656.88,44.31,656.21,46.24,655.03,48.42z M645.68,44.33
				c-7.21,5.17-11.91,11.3-14.5,18.07C634.64,56.62,639.36,50.67,645.68,44.33z M642.47,50.63c-3.84,2.89-6.53,6.19-7.88,9.85
				C636.56,57.28,639.06,54.01,642.47,50.63z M640.96,75.25c0.14,1.08,0.13,2.37,0.27,3.45c1.03,7.76,3.76,14.56,8.21,20.4
				C645.54,91.9,642.67,84.02,640.96,75.25z"/>
			<path fill="#EC008C" d="M718.56,58.19c0.54-0.07,0.93,0.06,1,0.6c0.09,0.72-0.28,2.06-0.94,3.98
				c-5.39,13.38-10.58,22.7-20.43,26.02c-4.77,8.34-11.5,14.37-19.62,15.45c-14.08,1.86-21.58-9.08-23.04-20.09
				c-0.48-3.61-0.53-20.68,3.44-21.2c1.62-0.22,4.27,0.35,6.47,1.71c-0.3-0.88-0.42-1.78-0.52-2.5
				c-1.55-11.73,6.5-23.08,17.14-24.49c13.53-1.79,20.98,10.08,22.39,20.73c0.88,6.68,0.03,14.13-2.18,21.04
				c4.6-4.1,5.8-10.31,11.01-16.7C715.35,60.26,717.48,58.33,718.56,58.19z M660,67.95c-0.9,0.12-2.48,7.67-1.57,14.53
				c0.52,3.97,1.59,7.87,3.37,10.2c-1.01-2.07-1.8-5.27-2.25-8.7c-0.74-5.59-0.6-11.49,0.33-14.18C659.92,68.7,660,67.95,660,67.95z
				 M677.82,94.42c2.71-0.36,5.07-1.96,7.33-4.27c-5.72-1.63-11.22-5.68-15.3-11.57c-0.39,2.62-0.46,4.83-0.17,7
				c0.6,4.51,2.88,7.88,6.5,8.87C676.74,94.57,677.28,94.5,677.82,94.42z M692.22,56.16c-0.81-6.13-3.34-10.02-8.58-9.33
				c-7.22,0.96-10.54,10.57-9.32,19.78c1.05,7.94,5.56,15.61,14.12,16.49C690.86,77.82,693.39,65,692.22,56.16z M698.85,52.17
				c0.23,0.34,0.69,1.01,0.66,0.83c-0.45-3.43-5.43-10.48-10.6-10.72C692.72,43.25,698.24,48.94,698.85,52.17z"/>
		</g>
		<g>
			<path fill="#EC008C" d="M177.13,274.15c0.74-0.1,1.3,0.33,1.4,1.08c0.62,4.71-19.85,54.12-28.95,57.85
				c-1.43,0.69-2.91,0.89-4.4,1.09c-7.19,0.95-11.87-1.96-14.8-6.88l-0.38-0.96c-1.35-2.6-2.28-5.76-2.74-9.23
				c-2.2-16.62,4.46-40.73,6.55-47.82c0.18-0.53,0.11-1.03,0.33-1.3c-3.11,3.19-17.76,29.86-26.07,56.71
				c0.69,5.21,3,11.21,3.36,13.94c0.26,1.98-0.6,3.11-2.09,3.31c-1.24,0.16-3.39-0.81-4.92-2.88c-6.75-1.38-10.31-9.24-11.79-20.4
				c-5.35-40.44,15.66-114.4,22.36-115.29c4.22-0.56,11.02,8.89,11.87,15.35c0.16,1.24,0.05,2.26-0.1,3.04
				c-6.74,25.38-13.4,49.48-16.94,70.4c8.92-20.37,20.82-41.12,32.23-42.63c7.19-0.95,14.4,3.9,15.25,10.35
				c0.89,6.7-12.88,43.86-11.05,61.54c10.79-10.01,16.47-31.97,23.61-40.99C172.46,277.04,175.39,274.38,177.13,274.15z
				 M105.8,231.08c-6.49,25.35-10.6,49.62-11.15,68.37C97,280.96,101.41,258.93,105.8,231.08z M133.87,284.92
				c-2.73,0.36-4.75,21.33-4.1,26.29c0.39,2.98,1.63,6.6,1.88,6.57c0.25-0.03,0.12-1.03-0.14-3.01c-0.07-0.5-0.41-1.21-0.48-1.7
				c-0.82-6.2,1.13-20.09,2.51-26.84C133.69,285.45,133.87,284.92,133.87,284.92z"/>
			<path fill="#EC008C" d="M248.41,263.46c0.74-0.1,1.27,0.08,1.37,0.83c0.13,0.99-0.38,2.83-1.3,5.47
				c-7.41,18.4-14.55,31.21-28.09,35.77c-6.56,11.47-15.81,19.76-26.98,21.24c-19.35,2.56-29.67-12.49-31.67-27.62
				c-0.66-4.96-0.73-28.43,4.72-29.15c2.23-0.3,5.87,0.49,8.9,2.36c-0.41-1.21-0.58-2.45-0.71-3.44
				c-2.13-16.13,8.93-31.73,23.57-33.66c18.61-2.46,28.84,13.86,30.78,28.49c1.21,9.18,0.04,19.43-2.99,28.92
				c6.32-5.63,7.97-14.18,15.14-22.95C243.99,266.32,246.92,263.66,248.41,263.46z M167.89,276.89c-1.24,0.16-3.4,10.54-2.15,19.97
				c0.72,5.46,2.19,10.82,4.63,14.03c-1.39-2.84-2.47-7.25-3.09-11.96c-1.02-7.69-0.83-15.79,0.45-19.49
				C167.77,277.92,167.89,276.89,167.89,276.89z M192.39,313.28c3.72-0.49,6.97-2.69,10.08-5.88c-7.87-2.24-15.42-7.81-21.03-15.9
				c-0.53,3.61-0.63,6.65-0.24,9.62c0.82,6.2,3.95,10.83,8.93,12.2C190.9,313.48,191.65,313.38,192.39,313.28z M212.19,260.68
				c-1.12-8.43-4.6-13.78-11.79-12.83c-9.93,1.31-14.49,14.54-12.81,27.19c1.44,10.92,7.63,21.46,19.41,22.67
				C210.33,290.46,213.8,272.83,212.19,260.68z M221.31,255.18c0.31,0.46,0.94,1.39,0.91,1.14c-0.62-4.71-7.46-14.41-14.57-14.73
				C212.87,242.92,220.47,250.75,221.31,255.18z"/>
			<path fill="#EC008C" d="M323.45,214.41c6.2-0.82,15,6.6,15.56,10.81c-1.77,17.15-19.34,86.62-39.68,89.31
				c-9.92,1.31-16.25-6.43-19.79-16.06c-5.5,11.84-12.21,20.3-19.16,21.21c-14.14,1.87-20.49-13.7-22.66-30.07
				c-2.66-20.09,0.18-44.45,1.63-54.48c0.27-1.81,1.69-2.5,3.67-2.76c6.2-0.82,18.25,4.4,19.07,10.6c0.1,0.74-0.08,1.27-0.23,2.05
				c-1.28,3.7-6.15,43.22-4.41,56.37c0.36,2.73,1.08,4.4,2.08,4.27c2.23-0.29,13.85-11.68,16.04-31.41
				c-0.52-11.54,0.14-23.75,1.26-32.48l0.15-0.78c0.63-6.65,0.03-13.13,5.24-13.82c1.24-0.16,3.58,0.28,3.58,0.28
				c1.98-0.26,5.57,2.04,5.57,2.04c0.25-0.03,0.53,0.18,0.78,0.15l-0.33,1.31c-1.56,7.27-2.88,14.52-2.42,17.99
				c0.74-0.1,2.66-14.23,3.81-18.93c0.56,0.43,2.05,0.24,3.52,1.81l1.16,1.11c1.72,1.54,2.54,3.96,2.93,6.93
				c-1.28,3.7-6.46,42.76-4.68,56.15c0.39,2.97,1.12,4.65,2.36,4.49c7.69-1.02,21.18-59.35,21.7-82.13
				C320.1,215.86,321.46,214.67,323.45,214.41z M244.1,240.56c-0.18,0.53-5.63,20.43-3.26,38.29c0.49,3.72,1.38,6.63,3.07,7.93
				c-0.41-1.21-0.61-2.7-0.8-4.19c-1.61-12.16-0.1-35.07,0.73-40.23C243.95,241.33,244.14,240.8,244.1,240.56z M326.43,240.78
				c-0.7,6.15-10.64,39.78-10.18,39.46C320.5,276.14,327.06,247.5,326.43,240.78z M330.94,242.45c0.16,1.24-5.28,17.36-10.79,36.77
				c-0.18,0.53-1.7,6.28-1.45,6.25c0.99-0.13,9.07-24.93,11.8-38.67C331.1,243.69,330.97,242.7,330.94,242.45z"/>
			<path fill="#EC008C" d="M433.62,240.23c0.75-0.1,1.31,0.33,1.41,1.08c0.56,4.22-18.4,57.46-33.53,59.46
				c-11.17,1.48-16.94-7.86-18.32-18.28c-2.2-16.62,3.83-41.65,11.16-66.35c0.33-1.31,1.97-2.28,3.96-2.54
				c5.71-0.76,15.01,2.81,15.93,9.76c0.2,1.49,0.15,3.01-0.62,4.88c-8.87,22.63-14.35,46.07-12.42,60.71
				c11.63-9.36,17.61-32.87,25.18-42.45C429.24,243.33,431.88,240.46,433.62,240.23z M405.97,241.11
				c-3.72,0.49-9.62,30.3-8.69,39.27c0.23,1.74,0.33,2.48,0.58,2.45c0.25-0.03,0.3-1.55,0.32-3.32
				C397.93,271.96,405.41,240.68,405.97,241.11z M413.58,207.03c-3.48,0.46-10.98-2.84-11.5-6.81c-0.56-4.22,3.79-24.74,8.51-25.36
				c4.46-0.59,16.27,4.67,16.73,8.14c0.03,0.25,0.07,0.5-0.15,0.78c-4.42,6.65-6.75,12-11.7,22.25
				C415.04,206.59,414.57,206.9,413.58,207.03z M405.34,196.26c1.49-0.2,1.74-4.02,1.78-3.77c0.99-0.13,4.29-11.42,4.13-12.66
				c-1.24,0.16-5.99,13.92-5.82,15.16C405.45,195.23,405.27,195.76,405.34,196.26z"/>
			<path fill="#EC008C" d="M464.65,200.03c-3.72,0.49-8.65,1.4-13.61,2.05c-6.22,23.54-13.85,55.6-11.36,74.45
				c0.33,2.48,0.91,4.93,1.66,6.85c17.71-11.18,22.62-48.43,34.53-50c0.74-0.1,1.27,0.08,1.37,0.83
				c0.36,2.73-7.66,22.22-14.32,36.73c-3.91,8.59-12.16,22.56-21.84,23.84c-7.44,0.98-16-6.47-18.23-23.34
				c-2.46-18.61,1.54-45.64,6.44-67.75c-8.38-0.4-15.51-2.74-16.43-9.69c-0.29-2.23,0.9-4.67,2.14-4.83
				c0.5-0.07,1.03,0.12,1.62,0.79c1.98,3.52,8.1,3.98,15.29,3.03c5.38-20.4,9.18-27.97,11.66-28.3c4.96-0.66,11.16,6.1,12.24,14.29
				c0.29,2.23,0.34,4.5-0.36,6.86c-0.18,0.53-0.27,1.8-0.23,2.05c0,0,0.28,0.22,1.77,0.02c2.45-0.58,4.64-1.12,6.63-1.38
				c6.45-0.85,8.6,0.13,9.58,7.57c0.07,0.5,0.72,5.46-0.77,5.65C471.13,199.42,468.37,199.53,464.65,200.03z M434.35,203.78
				l-1.03-0.11c-4.08,18.71-6.35,35.93-6.22,50.3C428.21,239.43,430.57,222.96,434.35,203.78z"/>
			<path fill="#EC008C" d="M586.88,179.57c6.21-0.82,15.01,6.6,15.57,10.81c-1.77,17.15-19.34,86.62-39.68,89.31
				c-9.93,1.31-16.25-6.43-19.8-16.06c-5.5,11.84-12.21,20.3-19.15,21.21c-14.14,1.87-20.49-13.7-22.66-30.07
				c-2.66-20.09,0.18-44.45,1.63-54.48c0.26-1.81,1.69-2.5,3.67-2.76c6.2-0.82,18.25,4.4,19.07,10.6c0.1,0.74-0.09,1.28-0.23,2.05
				c-1.28,3.7-6.15,43.22-4.41,56.37c0.36,2.73,1.09,4.4,2.08,4.27c2.23-0.29,13.85-11.68,16.04-31.41
				c-0.52-11.54,0.14-23.75,1.26-32.48l0.15-0.78c0.64-6.65,0.03-13.13,5.24-13.82c1.24-0.16,3.57,0.28,3.57,0.28
				c1.98-0.26,5.57,2.04,5.57,2.04c0.25-0.03,0.53,0.18,0.78,0.15l-0.33,1.31c-1.56,7.27-2.88,14.52-2.42,17.99
				c0.74-0.1,2.66-14.23,3.81-18.93c0.56,0.43,2.05,0.24,3.52,1.81l1.16,1.11c1.72,1.54,2.54,3.95,2.94,6.93
				c-1.28,3.7-6.46,42.76-4.69,56.16c0.39,2.97,1.12,4.65,2.36,4.49c7.69-1.02,21.18-59.35,21.7-82.13
				C583.54,181.02,584.9,179.83,586.88,179.57z M507.55,205.71c-0.18,0.53-5.63,20.43-3.27,38.29c0.49,3.72,1.38,6.63,3.07,7.93
				c-0.41-1.21-0.61-2.7-0.81-4.19c-1.61-12.16-0.09-35.07,0.74-40.23C507.39,206.49,507.58,205.96,507.55,205.71z M589.86,205.93
				c-0.7,6.15-10.64,39.77-10.18,39.46C583.94,241.3,590.5,212.66,589.86,205.93z M594.38,207.61c0.17,1.24-5.28,17.36-10.79,36.77
				c-0.18,0.53-1.69,6.28-1.45,6.25c0.99-0.13,9.07-24.93,11.8-38.67C594.54,208.85,594.41,207.85,594.38,207.61z"/>
			<path fill="#EC008C" d="M688.22,205.29c0.74-0.1,1.27,0.08,1.37,0.83c0.13,0.99-0.38,2.83-1.3,5.47
				c-7.41,18.4-14.55,31.21-28.09,35.77c-6.56,11.47-15.81,19.76-26.97,21.24c-19.35,2.56-29.67-12.49-31.67-27.62
				c-0.66-4.96-0.73-28.43,4.73-29.15c2.23-0.3,5.87,0.49,8.9,2.36c-0.41-1.21-0.58-2.45-0.71-3.44
				c-2.13-16.13,8.93-31.73,23.57-33.66c18.61-2.46,28.84,13.86,30.78,28.49c1.21,9.18,0.04,19.43-2.99,28.92
				c6.32-5.63,7.97-14.18,15.14-22.95C683.8,208.15,686.73,205.49,688.22,205.29z M607.7,218.72c-1.24,0.16-3.41,10.55-2.16,19.97
				c0.72,5.46,2.19,10.82,4.63,14.03c-1.39-2.84-2.47-7.25-3.1-11.96c-1.02-7.69-0.83-15.79,0.45-19.49
				C607.59,219.74,607.7,218.72,607.7,218.72z M632.2,255.11c3.72-0.49,6.97-2.69,10.08-5.88c-7.87-2.24-15.43-7.81-21.04-15.9
				c-0.54,3.61-0.64,6.65-0.24,9.62c0.82,6.2,3.96,10.84,8.93,12.2C630.72,255.3,631.46,255.21,632.2,255.11z M652,202.5
				c-1.12-8.43-4.59-13.78-11.79-12.83c-9.92,1.31-14.49,14.54-12.81,27.19c1.44,10.91,7.64,21.46,19.41,22.67
				C650.14,232.29,653.61,214.66,652,202.5z M661.12,197.01c0.32,0.46,0.95,1.39,0.91,1.14c-0.62-4.71-7.46-14.41-14.57-14.73
				C652.69,184.75,660.28,192.58,661.12,197.01z"/>
			<path fill="#EC008C" d="M739.04,177.36c0.98,7.44-9.64,18.69-7.05,38.29c0.26,1.99,0.77,3.94,1.32,6.14
				c0.33,2.48-1.03,3.67-3.01,3.93c-7.19,0.95-12.03-6.99-14-21.88c-0.23-1.74-0.46-3.47-0.47-5.49
				c-8.89,20.61-16.93,41.87-18.32,59.98c-0.23,2.05-1.56,3.49-3.54,3.75c-10.17,1.35-14.76-6.63-16.34-18.54
				c-3.18-24.07,6.28-63.18,8.74-67.54c0.61-1.09,2.28-1.82,4.26-2.08c5.71-0.75,14.42,2.13,15.11,7.34
				c0.07,0.5,0.16,1.24-0.02,1.77c-3.2,12.04-8.73,29.43-9.24,44.64c1.54-11.31,16-54.62,32.37-56.79c2.23-0.3,4.56,0.15,7.06,1.84
				C737.87,174.24,738.81,175.63,739.04,177.36z M690.98,180.44c-6.1,11.16-8.62,22.6-7.39,33.79
				C684.17,203.3,686.69,191.86,690.98,180.44z M718.73,205.04c0.43,3.22,1.81,6.07,3.66,8.6c-1.58-4.33-2.37-10.29-3.22-16.74
				C718.53,199.77,718.4,202.56,718.73,205.04z"/>
			<path fill="#EC008C" d="M811.42,255.13c0.03,0.25-8.81,13.53-19.48,14.95c-18.11,2.4-32.45-31.55-39.1-51.37
				c-0.57,7.15-0.71,13.73,0.04,19.43c0.62,4.71,2.83,9.97,3.23,12.95c0.29,2.23-0.56,3.35-1.8,3.52c-1.49,0.2-3.64-0.78-5.21-3.1
				c-6.75-1.38-10.31-9.24-11.75-20.15c-5.35-40.44,15.66-114.4,22.36-115.29c4.46-0.59,11.3,9.11,12.16,15.56
				c0.13,0.99,0.01,2.02-0.14,2.79c-5.11,18.6-10.04,36.67-13.9,53.33c7.24-12.06,17.01-25.98,25.2-27.06
				c7.69-1.02,13.75,4.74,14.84,12.93c1.58,11.91-11.86,34.38-33.58,40.03c10.16,23.39,25.9,41.25,41.53,39.19
				C809.04,252.42,811.19,253.39,811.42,255.13z M750.76,145.77c-7.02,25.16-11.13,49.43-10.91,68.34
				C741.15,195.26,745.03,173.04,750.76,145.77z M782.03,174.2c-3.72,0.49-16.89,17.38-22.32,29.71
				c9.79-2.31,24.04-24.38,23.38-29.34C782.81,174.35,782.53,174.13,782.03,174.2z M787.61,250.71c-0.03-0.25-3.13-2.62-4.25-3.48
				c-2.38-2.72-12.09-15.06-11.84-15.09c1.02,7.69,10.66,15.75,14.47,17.78C786.83,250.56,787.36,250.74,787.61,250.71z"/>
			<path fill="#EC008C" d="M837.03,160.62c0.34,0.71,0.44,1.46,0.54,2.2c1.15,8.68-12.37,19.05-17.17,24.74
				c-0.17,2.55-0.09,5.06,0.24,7.54c1.84,13.89,10.05,30.22,15.07,41.42c0.38,0.96,0.51,1.95,0.61,2.7
				c0.76,5.71-5.43,8.54-12.63,9.5c-6.45,0.85-13.62,0.04-17.11-1.52c-7.23-3.08-16.61-12.95-17.36-18.66
				c-0.53-3.97,0.37-8.63,3.75-9.83l0.77,0.15c5.74,3.28,12.59,11.21,19.53,14.08c-5.78-9.33-11.63-24.97-13.34-37.87
				c-0.62-4.71-0.71-9.25,0.07-12.88c3.38-14.58,24.59-33.54,31.78-34.5c0.25-0.03,0.78,0.15,1.31,0.33
				c0.49-0.06,1.02,0.12,1.09,0.61c0.03,0.25,0.07,0.49-0.12,1.03l1.14-0.91l1.02,0.12c0.81,0.4,2.66,2.93,3.01,3.64
				C839.57,154.98,838.65,157.63,837.03,160.62z M824.17,155c-9.92,7.12-16.37,15.54-19.94,24.85
				C808.99,171.9,815.48,163.72,824.17,155z M819.76,163.66c-5.28,3.98-8.97,8.51-10.83,13.55
				C811.63,172.81,815.08,168.32,819.76,163.66z M817.67,197.51c0.2,1.49,0.18,3.26,0.38,4.75c1.41,10.67,5.17,20.01,11.28,28.04
				C823.99,220.4,820.03,209.57,817.67,197.51z"/>
			<path fill="#EC008C" d="M856.93,236.74c3.72-0.49,8.45,0.9,9.08,5.62c1.48,11.16-5.47,21.67-11.42,22.46
				c-4.71,0.62-9.76-1.24-10.45-6.44c-0.79-5.96,2.4-16.22,6.57-19.04C852.54,237.83,854.7,237.04,856.93,236.74z M856.36,238.08
				c-4.9,1.15-8.71,6.71-9.79,11.89C848.41,246.71,852.47,241.12,856.36,238.08z M881.78,117.34c5.21-0.69,11.36,3.8,12.14,9.75
				c0.16,1.24,0.05,2.27-0.28,3.57c-4.72,21.58-10.68,43.32-16.7,64.56c-2.57,9.18-8.11,34.14-12.32,34.7
				c-3.47,0.46-10.17-2.44-10.79-7.16c6.75-32.95,13.35-65.12,20.69-97.39C875.59,120.18,878.56,117.76,881.78,117.34z
				 M888.69,140.91c-7.66,22.22-14.3,44.55-18.3,67.8C875.59,188.84,882.48,166.47,888.69,140.91z"/>
		</g>
	</g>
</g>
</svg>
