<?xml version="1.0" encoding="utf-8"?>
<!-- Generator: Adobe Illustrator 15.0.2, SVG Export Plug-In . SVG Version: 6.00 Build 0)  -->
<!DOCTYPE svg PUBLIC "-//W3C//DTD SVG 1.1//EN" "http://www.w3.org/Graphics/SVG/1.1/DTD/svg11.dtd">
<svg version="1.1" id="terminal_x5F_username" xmlns="http://www.w3.org/2000/svg" xmlns:xlink="http://www.w3.org/1999/xlink"
	 x="0px" y="0px" width="64.06px" height="10.47px" viewBox="0 0 64.06 10.47" enable-background="new 0 0 64.06 10.47"
	 xml:space="preserve">
<g>
	<path d="M0,4.74c0.23-0.38,0.48-0.65,0.74-0.82C1,3.76,1.26,3.67,1.52,3.67c0.22,0,0.42,0.05,0.59,0.14S2.44,4,2.58,4.11
		c0.15,0.11,0.29,0.21,0.42,0.3s0.28,0.14,0.43,0.14c0.31,0,0.58-0.22,0.81-0.65l0.67,0.52C4.69,4.8,4.45,5.07,4.19,5.23
		S3.68,5.48,3.42,5.48C3.2,5.48,3,5.43,2.83,5.34C2.66,5.25,2.5,5.15,2.35,5.04c-0.15-0.11-0.29-0.21-0.42-0.3
		C1.79,4.64,1.65,4.6,1.5,4.6c-0.31,0-0.58,0.22-0.81,0.65L0,4.74z"/>
	<path d="M8.35,2.81h1.04l0.09,0.73h0.04c0.24-0.23,0.5-0.44,0.79-0.6c0.28-0.17,0.61-0.25,0.98-0.25c0.58,0,1,0.19,1.27,0.56
		c0.26,0.37,0.4,0.9,0.4,1.59v3.39h-1.27V4.98c0-0.45-0.07-0.76-0.2-0.95c-0.13-0.18-0.35-0.27-0.65-0.27
		c-0.23,0-0.44,0.06-0.62,0.17c-0.18,0.11-0.38,0.28-0.61,0.5v3.77H8.35V2.81z"/>
	<path d="M14.2,6.75c0-0.58,0.25-1.03,0.76-1.34s1.31-0.54,2.42-0.66c0-0.14-0.02-0.27-0.06-0.4s-0.09-0.24-0.17-0.34
		c-0.08-0.1-0.18-0.18-0.3-0.23C16.73,3.72,16.58,3.7,16.4,3.7c-0.27,0-0.53,0.05-0.79,0.15s-0.5,0.23-0.73,0.37l-0.46-0.85
		c0.3-0.19,0.64-0.36,1.01-0.5c0.37-0.14,0.77-0.21,1.2-0.21c0.68,0,1.19,0.2,1.52,0.6c0.33,0.4,0.5,0.98,0.5,1.73v3.2h-1.03
		l-0.1-0.59h-0.03c-0.24,0.21-0.5,0.38-0.78,0.52c-0.28,0.14-0.57,0.21-0.9,0.21c-0.48,0-0.86-0.14-1.16-0.43
		C14.35,7.61,14.2,7.23,14.2,6.75z M15.43,6.66c0,0.24,0.07,0.42,0.21,0.53s0.33,0.17,0.56,0.17c0.22,0,0.42-0.05,0.6-0.15
		c0.18-0.1,0.37-0.25,0.57-0.44V5.54c-0.37,0.04-0.67,0.1-0.92,0.18C16.2,5.79,16,5.88,15.85,5.97s-0.26,0.2-0.32,0.31
		C15.46,6.4,15.43,6.52,15.43,6.66z"/>
	<path d="M20.31,3.81h-0.77V2.86l0.84-0.05l0.15-1.47h1.06v1.47h1.38v1h-1.38v2.57c0,0.63,0.25,0.95,0.76,0.95
		c0.1,0,0.19-0.01,0.29-0.03s0.19-0.05,0.27-0.09l0.22,0.94c-0.15,0.05-0.31,0.1-0.5,0.14c-0.19,0.04-0.39,0.06-0.6,0.06
		c-0.32,0-0.58-0.05-0.8-0.14c-0.22-0.1-0.39-0.23-0.53-0.4s-0.23-0.38-0.3-0.62c-0.06-0.24-0.09-0.5-0.09-0.8V3.81z"/>
	<path d="M23.65,5.51c0-0.44,0.07-0.84,0.21-1.19c0.14-0.35,0.32-0.65,0.56-0.89c0.23-0.24,0.5-0.43,0.8-0.56
		c0.3-0.13,0.61-0.2,0.92-0.2c0.37,0,0.69,0.06,0.97,0.19c0.28,0.12,0.51,0.3,0.7,0.53c0.19,0.23,0.33,0.5,0.42,0.81
		c0.09,0.32,0.14,0.66,0.14,1.03c0,0.25-0.02,0.45-0.05,0.59h-3.43c0.06,0.49,0.23,0.87,0.51,1.13c0.28,0.26,0.64,0.4,1.08,0.4
		c0.23,0,0.45-0.03,0.65-0.1c0.2-0.07,0.4-0.17,0.6-0.29l0.43,0.79c-0.26,0.17-0.54,0.31-0.86,0.42c-0.31,0.11-0.65,0.17-0.99,0.17
		c-0.37,0-0.72-0.06-1.04-0.19c-0.32-0.13-0.6-0.31-0.85-0.56c-0.24-0.24-0.43-0.54-0.57-0.89S23.65,5.96,23.65,5.51z M27.27,5.03
		c0-0.43-0.09-0.77-0.27-1.01c-0.18-0.24-0.46-0.36-0.83-0.36c-0.32,0-0.6,0.12-0.85,0.35s-0.39,0.57-0.45,1.03H27.27z"/>
	<path d="M29.61,2.81h1.28v5.68c0,0.29-0.03,0.55-0.09,0.79c-0.06,0.24-0.16,0.45-0.29,0.63c-0.14,0.18-0.31,0.32-0.53,0.42
		c-0.22,0.1-0.49,0.15-0.8,0.15c-0.2,0-0.37-0.02-0.51-0.04c-0.14-0.03-0.27-0.06-0.37-0.1l0.24-0.95c0.07,0.02,0.15,0.04,0.23,0.06
		c0.08,0.02,0.16,0.03,0.24,0.03c0.24,0,0.41-0.08,0.49-0.25s0.13-0.41,0.13-0.72V2.81z M30.25,1.86c-0.22,0-0.41-0.07-0.56-0.2
		s-0.23-0.3-0.23-0.52c0-0.21,0.08-0.39,0.23-0.52s0.34-0.2,0.56-0.2c0.23,0,0.42,0.07,0.57,0.2s0.23,0.31,0.23,0.52
		c0,0.21-0.08,0.39-0.23,0.52S30.48,1.86,30.25,1.86z"/>
	<path d="M32.14,5.51c0-0.45,0.07-0.85,0.21-1.2c0.14-0.35,0.33-0.65,0.57-0.89c0.24-0.24,0.51-0.43,0.82-0.56s0.63-0.19,0.97-0.19
		c0.34,0,0.66,0.06,0.97,0.19s0.58,0.31,0.82,0.56c0.24,0.24,0.42,0.54,0.57,0.89c0.14,0.35,0.21,0.75,0.21,1.2s-0.07,0.85-0.21,1.2
		c-0.14,0.35-0.33,0.65-0.57,0.89c-0.23,0.24-0.51,0.43-0.82,0.55c-0.31,0.12-0.64,0.19-0.97,0.19c-0.34,0-0.66-0.06-0.97-0.19
		c-0.31-0.12-0.58-0.31-0.82-0.55s-0.43-0.54-0.57-0.89C32.2,6.36,32.14,5.96,32.14,5.51z M33.43,5.51c0,0.54,0.11,0.98,0.34,1.3
		C33.99,7.14,34.3,7.3,34.7,7.3c0.4,0,0.71-0.16,0.94-0.49c0.23-0.33,0.34-0.76,0.34-1.3c0-0.55-0.11-0.99-0.34-1.31
		c-0.23-0.33-0.54-0.49-0.94-0.49c-0.4,0-0.71,0.16-0.93,0.49C33.54,4.52,33.43,4.96,33.43,5.51z"/>
	<path d="M38.44,9.38c0.07,0.02,0.14,0.03,0.2,0.03c0.29,0,0.51-0.09,0.69-0.26c0.17-0.17,0.3-0.39,0.39-0.67l0.1-0.34L37.7,2.81
		h1.29l0.93,2.65C40,5.69,40.08,5.94,40.16,6.2s0.16,0.52,0.24,0.78h0.04c0.07-0.25,0.13-0.5,0.2-0.76c0.07-0.26,0.14-0.51,0.2-0.75
		l0.81-2.65h1.22l-1.96,5.64c-0.11,0.31-0.23,0.58-0.36,0.82c-0.13,0.24-0.28,0.45-0.46,0.62c-0.17,0.17-0.37,0.3-0.59,0.4
		s-0.48,0.14-0.78,0.14c-0.15,0-0.28-0.01-0.38-0.03c-0.11-0.02-0.22-0.05-0.32-0.08l0.23-0.99C38.31,9.34,38.37,9.36,38.44,9.38z"
		/>
	<path d="M43.84,2.81h1.04l0.09,0.73h0.04c0.24-0.23,0.5-0.44,0.79-0.6c0.28-0.17,0.61-0.25,0.98-0.25c0.58,0,1,0.19,1.26,0.56
		c0.26,0.37,0.4,0.9,0.4,1.59v3.39h-1.26V4.98c0-0.45-0.07-0.76-0.2-0.95s-0.35-0.27-0.65-0.27c-0.23,0-0.44,0.06-0.62,0.17
		s-0.38,0.28-0.61,0.5v3.77h-1.27V2.81z"/>
	<path d="M49.66,5.51c0-0.44,0.07-0.84,0.21-1.19c0.14-0.35,0.32-0.65,0.56-0.89c0.23-0.24,0.5-0.43,0.8-0.56s0.61-0.2,0.92-0.2
		c0.37,0,0.69,0.06,0.97,0.19c0.28,0.12,0.51,0.3,0.7,0.53c0.19,0.23,0.33,0.5,0.42,0.81c0.09,0.32,0.14,0.66,0.14,1.03
		c0,0.25-0.02,0.45-0.05,0.59h-3.43c0.06,0.49,0.23,0.87,0.51,1.13c0.28,0.26,0.64,0.4,1.08,0.4c0.23,0,0.45-0.03,0.65-0.1
		c0.2-0.07,0.4-0.17,0.6-0.29l0.43,0.79c-0.26,0.17-0.54,0.31-0.86,0.42c-0.31,0.11-0.64,0.17-0.99,0.17
		c-0.37,0-0.72-0.06-1.04-0.19c-0.32-0.13-0.61-0.31-0.85-0.56C50.19,7.35,50,7.05,49.86,6.7S49.66,5.96,49.66,5.51z M53.28,5.03
		c0-0.43-0.09-0.77-0.27-1.01c-0.18-0.24-0.46-0.36-0.83-0.36c-0.32,0-0.6,0.12-0.85,0.35s-0.39,0.57-0.45,1.03H53.28z"/>
	<path d="M55.62,2.81h1.04l0.09,0.96h0.04c0.19-0.35,0.42-0.62,0.69-0.81s0.55-0.28,0.84-0.28c0.26,0,0.46,0.04,0.62,0.11l-0.22,1.1
		c-0.1-0.03-0.18-0.05-0.26-0.07c-0.08-0.01-0.18-0.02-0.3-0.02c-0.21,0-0.44,0.08-0.67,0.25s-0.44,0.45-0.6,0.86v3.3h-1.27V2.81z"
		/>
	<path d="M63.3,2.69c-0.21-0.19-0.4-0.34-0.59-0.43c-0.19-0.1-0.42-0.15-0.68-0.15c-0.3,0-0.54,0.08-0.7,0.23
		c-0.17,0.15-0.25,0.37-0.25,0.65c0,0.22,0.07,0.4,0.22,0.54s0.33,0.27,0.56,0.4s0.46,0.24,0.72,0.36c0.26,0.12,0.5,0.27,0.72,0.43
		c0.22,0.17,0.41,0.38,0.56,0.62s0.22,0.55,0.22,0.92c0,0.53-0.15,0.97-0.44,1.33c-0.29,0.36-0.71,0.58-1.26,0.69v1.13h-0.88v-1.1
		c-0.34-0.04-0.68-0.13-1.02-0.27c-0.34-0.14-0.64-0.33-0.89-0.57l0.57-0.86c0.26,0.21,0.52,0.37,0.78,0.5
		c0.26,0.12,0.55,0.19,0.85,0.19c0.36,0,0.63-0.08,0.8-0.25s0.26-0.4,0.26-0.7c0-0.24-0.07-0.44-0.22-0.6
		c-0.15-0.16-0.33-0.31-0.56-0.44s-0.46-0.26-0.72-0.38s-0.5-0.26-0.72-0.43c-0.22-0.17-0.41-0.36-0.56-0.59
		c-0.15-0.23-0.22-0.52-0.22-0.86c0-0.51,0.15-0.94,0.44-1.28c0.29-0.34,0.69-0.56,1.19-0.64V0h0.88v1.1
		c0.35,0.04,0.65,0.15,0.91,0.3c0.25,0.16,0.48,0.34,0.69,0.56L63.3,2.69z"/>
</g>
</svg>
